<svg width="126" height="353" fill="none" xmlns="http://www.w3.org/2000/svg"><path d="M104.168 6.56L88.799 23.199 73.43 6.561h30.738z" fill="#E2EDF9" stroke="#E2EDF9" stroke-width=".95"/><path d="M20.231 42.538l-8.382 9.153-8.382-9.153H20.23zm68.401 62.939l-8.383-9.153-8.382 9.153H88.63z" fill="#fff" stroke="#E2EDF9" stroke-width=".95"/><path d="M22.479 128.162L37.848 144.8l15.37-16.638h-30.74z" fill="#E2EDF9" stroke="#E2EDF9" stroke-width=".95"/><path d="M106.416 164.14l8.382 9.153 8.383-9.153h-16.765zm-68.4 62.939l8.382-9.153 8.382 9.153H38.016z" fill="#fff" stroke="#E2EDF9" stroke-width=".95"/><path d="M104.168 250.112l-15.369 16.637-15.369-16.637h30.738z" fill="#E2EDF9" stroke="#E2EDF9" stroke-width=".95"/><path d="M20.231 286.089l-8.382 9.153-8.382-9.153H20.23zm68.401 62.939l-8.383-9.153-8.382 9.153H88.63z" fill="#fff" stroke="#E2EDF9" stroke-width=".95"/></svg>