<svg width="524" height="147" fill="none" xmlns="http://www.w3.org/2000/svg"><path d="M138.919 8.629l-20.68 22.386L97.559 8.63h41.36z" fill="#E2EDF9" stroke="#E2EDF9" stroke-width="1.278"/><path d="M25.979 57.043L14.7 69.358 3.421 57.043H25.98zm92.034 84.684l-11.278-12.316-11.279 12.316h22.557z" fill="#fff" stroke="#E2EDF9" stroke-width="1.278"/><path d="M78.345 65.323v22.92h-3.241V68.171h-5.173v-2.849h8.414zm11.562 9.135c3.274 0 5.675.622 7.203 1.867 1.55 1.222 2.324 2.903 2.324 5.042 0 1.353-.327 2.575-.982 3.667-.633 1.07-1.604 1.92-2.914 2.553-1.288.611-2.881.917-4.78.917-1.615 0-3.176-.24-4.682-.72-1.506-.502-2.75-1.19-3.732-2.063l1.506-2.586c.785.742 1.79 1.342 3.012 1.8a11.4 11.4 0 003.863.655c1.725 0 3.056-.36 3.995-1.08.96-.742 1.44-1.747 1.44-3.013 0-1.375-.524-2.411-1.571-3.11-1.048-.72-2.838-1.08-5.37-1.08h-5.206l1.212-11.984h12.933v2.849H87.975l-.622 6.286h2.554z" fill="#fff"/><path d="M209.886 128.383l20.679-22.386 20.68 22.386h-41.359z" fill="#E2EDF9" stroke="#E2EDF9" stroke-width="1.278"/><path d="M319.421 97.262L330.7 84.946l11.279 12.316h-22.558zm-86-79.989L244.7 29.59l11.279-12.316h-22.558z" fill="#fff" stroke="#E2EDF9" stroke-width="1.278"/><path d="M518.919 8.629l-20.68 22.386-20.68-22.386h41.36z" fill="#E2EDF9" stroke="#E2EDF9" stroke-width="1.278"/><path d="M405.979 57.043L394.7 69.358l-11.279-12.315h22.558zm92.034 84.684l-11.278-12.316-11.279 12.316h22.557z" fill="#fff" stroke="#E2EDF9" stroke-width="1.278"/></svg>