<svg width="909" height="302" fill="none" xmlns="http://www.w3.org/2000/svg"><path d="M445.746 288.5l-32.356-35.026-32.356 35.026h64.712z" fill="#fff" stroke="#E2EDF9" stroke-width="2"/><path d="M217.746 77.5l-32.356 35.026L153.034 77.5h64.712z" fill="#E2EDF9" stroke="#E2EDF9" stroke-width="2"/><path d="M760.746 77.5l-32.356 35.026L696.034 77.5h64.712zm35-57L763.39 55.526 731.034 20.5h64.712z" fill="#fff" stroke="#E2EDF9" stroke-width="2"/><path d="M697.531 102.5L670.39 73.464 643.249 102.5h54.282zm160-72L830.39 1.464 803.249 30.5h54.282z" fill="#E2EDF9" stroke="#E2EDF9" stroke-width="2"/><path d="M506.037 75.25L488.39 94.52l-17.647-19.27h35.294z" fill="#fff" stroke="#E2EDF9" stroke-width="2"/><path d="M582.037 208.75l-17.647-19.269-17.647 19.269h35.294zm-142-142L422.39 47.48l-17.647 19.27h35.294z" fill="#E2EDF9" stroke="#E2EDF9" stroke-width="2"/><path d="M41.037 153.25L23.39 172.519 5.743 153.25h35.294zm144 132.5l-17.647-19.269-17.647 19.269h35.294zm718-129.5l-17.647 19.269-17.647-19.269h35.294z" fill="#fff" stroke="#E2EDF9" stroke-width="2"/><path d="M764.037 285.75l-17.647-19.269-17.647 19.269h35.294z" fill="#E2EDF9" stroke="#E2EDF9" stroke-width="2"/></svg>