<svg width="493" height="498" fill="none" xmlns="http://www.w3.org/2000/svg"><path opacity=".1" fill-rule="evenodd" clip-rule="evenodd" d="M226.332 302.676l6.643 54.559-54.56 6.643 47.917-61.202zm128.508 83.548l-64.481 82.36-8.939-73.42 73.42-8.94zm112.986-144.315l-65.98 84.275-9.147-75.128 75.127-9.147zm-89.125-105.818l80.518 63.039-71.778 8.74-8.74-71.779zm-142.4-111.487l86.266 67.539-76.902 9.363-9.364-76.902zM134.922 114.99l59.33-75.781 8.226 67.556-67.556 8.225zM27.934 251.643l54.832-70.036 7.602 62.434-62.434 7.602zm67.692 35.585l-65.782 8.009 73.792 57.773-8.01-65.782zm150.409 177.268l-71.876-56.273 64.074-7.801 7.802 64.074zm98.219-251.368l-6.435-52.852-46.417 59.287 52.852-6.435zm-48.25 49.702l53.508-6.515 6.515 53.508-60.023-46.993zm-109.521-30.492l-59.373-46.484 6.445 52.928 52.928-6.444zm-47.67 49.631l53.585-6.524-47.06 60.109-6.525-53.585zm130.696 15.371l61.289 47.984-54.637 6.653-6.652-54.637zm-12.685-104.184l42.561-54.364-48.462 5.901 5.901 48.463zm-49.088-43.205l5.891 48.385-54.276-42.493 48.385-5.892zm57.651 66.889l-50.88 6.195 6.195 50.88 50.881-6.195-6.196-50.88z" fill="#FEFEFE"/></svg>