<svg width="129" height="49" fill="none" xmlns="http://www.w3.org/2000/svg"><path d="M6.658 25.72l.764 6.275-7.039-5.51 6.275-.765zm14.347 16.91l-6.856-5.369 6.112-.744.744 6.112zm10.378-7.467l-6.15 7.856-.853-7.003 7.003-.853zM42.16 21.398l-6.293 8.038-.873-7.166 7.166-.872zm-8.5-10.094l7.68 6.013-6.847.834-.834-6.847zM20.076.67l8.229 6.442-7.335.893L20.076.67zm-9.67 8.621l5.66-7.228.784 6.444-6.444.784zM.201 22.326l5.23-6.68.725 5.955-5.955.725zm10.576 2.893l.623 5.11 4.489-5.733-5.112.623zm14.994-1.826l5.725 4.483-.621-5.104-5.104.621zm4.602-4.741l-5.04.614 4.427-5.655.613 5.041zm-15.049 1.833l-5.048.614-.615-5.048 5.663 4.434zm4.436 11.913l-5.205.633 4.57-5.837.634 5.204zm9.33-1.136l-5.212.634-.634-5.211 5.846 4.577zM17.352 12.626l-4.616.562 5.178 4.053-.562-4.615zm4.682 4.121l4.06-5.185-4.623.563.563 4.622zm.816 2.259l-4.853.591.591 4.854 4.854-.591-.591-4.854zm45.188 29.082h20.12c1.593 0 3.125-.508 4.254-1.674 1.116-1.152 1.562-2.663 1.562-4.142V29.08c0-2.064-.614-3.939-2.06-5.267-1.406-1.292-3.222-1.716-4.922-1.716H68.037v5.072h18.954c.923 0 1.33.232 1.491.38.122.112.419.46.419 1.53v3.697H78.609v5.072h10.293v4.425c0 .244-.036.402-.068.492a.329.329 0 01-.065.122.267.267 0 01-.104.058c-.08.03-.24.072-.507.072h-20.12v5.072zM96.296 22.04v26.132h5.072V31.738l10.653 17.163 3.016-4.759-.01-.016 7.95-12.544v16.59h5.072V22.041h-5.029l-10.964 17.298-10.737-17.298h-5.023zm-43.261.176l-.055.002c-3.943.131-6.326 2.568-7.615 4.166l-.02.024-16.632 21.68h6.393L49.33 29.546c.984-1.213 2.112-2.184 3.77-2.257l6.991.069v20.73h5.072V22.335l-12.128-.12z" fill="#fff"/></svg>